<?xml version="1.0" encoding="UTF-8" standalone="no"?>
<!DOCTYPE svg PUBLIC "-//W3C//DTD SVG 1.1//EN" "http://www.w3.org/Graphics/SVG/1.1/DTD/svg11.dtd">
<svg width="100%" height="100%" viewBox="0 0 600 550" version="1.1" xmlns="http://www.w3.org/2000/svg" xmlns:xlink="http://www.w3.org/1999/xlink" xml:space="preserve" xmlns:serif="http://www.serif.com/" style="fill-rule:evenodd;clip-rule:evenodd;stroke-linejoin:round;stroke-miterlimit:2;">
    <g transform="matrix(0.0395343,4.133e-21,-4.133e-21,-0.0395005,-114.659,570.117)">
        <g>
            <path d="M8652,14118C8788,13963 8884,13798 8945,13617C9010,13422 9002,13344 8908,13244C8841,13173 8779,13147 8675,13147C8575,13147 8506,13176 8431,13252C8263,13420 8256,13719 8416,13982C8452,14041 8574,14180 8590,14180C8594,14180 8622,14152 8652,14118Z" style="fill:rgb(232,119,34);fill-rule:nonzero;stroke:black;stroke-width:158.16px;"/>
            <path d="M12950,14093C13042,13995 13096,13917 13150,13805C13210,13680 13233,13590 13233,13480C13233,13273 13124,13160 12911,13143C12825,13137 12734,13155 12666,13193C12614,13222 12574,13298 12559,13400C12533,13574 12590,13805 12701,13967C12735,14017 12868,14160 12881,14160C12884,14160 12916,14130 12950,14093Z" style="fill:rgb(232,119,34);fill-rule:nonzero;stroke:black;stroke-width:158.16px;"/>
            <path d="M8940,12425C9221,12364 9459,12237 9668,12035C10021,11696 10214,11230 10252,10623C10306,9768 10001,8976 9461,8569C9335,8474 9117,8362 8985,8325C8609,8217 8144,8274 7780,8472C7287,8740 7003,9196 6939,9824C6924,9977 6933,10450 6954,10609C7009,11023 7117,11354 7289,11639C7551,12072 7966,12355 8456,12435C8569,12453 8834,12448 8940,12425Z" style="fill:rgb(232,119,34);fill-rule:nonzero;stroke:black;stroke-width:158.16px;"/>
            <path d="M13015,12400C13233,12379 13414,12328 13601,12236C14234,11921 14624,11235 14735,10240C14754,10066 14754,9767 14735,9630C14662,9119 14388,8720 13927,8458C13566,8252 13112,8194 12725,8305C12607,8338 12398,8442 12285,8521C12180,8596 12003,8764 11917,8870C11581,9287 11380,9874 11363,10490C11357,10722 11368,10868 11406,11060C11558,11811 12084,12335 12752,12399C12873,12411 12894,12411 13015,12400Z" style="fill:rgb(232,119,34);fill-rule:nonzero;stroke:black;stroke-width:158.16px;"/>
            <path d="M3395,10267C3624,10114 3794,9936 3866,9774C3900,9696 3898,9644 3858,9584C3753,9427 3466,9378 3312,9490C3196,9574 3133,9791 3159,10016C3170,10115 3205,10271 3229,10333L3240,10362L3288,10334C3314,10319 3362,10289 3395,10267Z" style="fill:rgb(232,119,34);fill-rule:nonzero;stroke:black;stroke-width:158.16px;"/>
            <path d="M17759,10107C17808,9953 17824,9845 17824,9670C17824,9501 17816,9461 17770,9397C17705,9308 17614,9269 17454,9262C17368,9259 17330,9261 17285,9275C17220,9294 17135,9333 17106,9359C17053,9405 17041,9512 17078,9607C17132,9748 17330,9977 17495,10090C17592,10157 17713,10221 17722,10212C17725,10208 17742,10161 17759,10107Z" style="fill:rgb(232,119,34);fill-rule:nonzero;stroke:black;stroke-width:158.16px;"/>
            <path d="M4881,8662C5149,8599 5412,8466 5665,8266C5934,8052 6299,7643 6481,7350C6550,7239 6642,7046 6675,6945C6739,6747 6747,6511 6696,6337C6598,6006 6314,5696 5850,5415C5216,5030 4676,4974 4268,5251C3744,5607 3364,6621 3441,7460C3488,7980 3708,8407 4009,8564C4090,8606 4245,8656 4354,8675C4473,8696 4767,8688 4881,8662Z" style="fill:rgb(232,119,34);fill-rule:nonzero;stroke:black;stroke-width:158.16px;"/>
            <path d="M16721,8674C16843,8653 17013,8597 17091,8551C17182,8498 17301,8381 17370,8278C17664,7839 17727,7158 17539,6465C17395,5933 17144,5502 16848,5279C16475,4999 15981,5010 15411,5311C14831,5618 14474,5981 14374,6365C14342,6489 14338,6678 14364,6803C14414,7033 14529,7271 14713,7520C15212,8196 15738,8585 16270,8675C16379,8694 16608,8693 16721,8674Z" style="fill:rgb(232,119,34);fill-rule:nonzero;stroke:black;stroke-width:158.16px;"/>
            <path d="M10881,7591C11175,7532 11523,7366 11879,7115C12155,6921 12458,6667 12870,6285C13104,6067 13217,5970 13745,5529C13993,5322 14258,5098 14335,5030C15358,4135 15835,3466 15962,2750C15970,2703 15975,2596 15975,2465C15975,2286 15971,2238 15952,2140C15911,1941 15859,1797 15775,1655C15490,1172 14906,855 14180,789C13999,773 13648,783 13470,809C13027,875 12677,987 12225,1210C11988,1327 11870,1376 11706,1429C10928,1678 10056,1612 9195,1240C9135,1214 9027,1167 8955,1136C8338,867 7675,730 7180,769C6469,826 5966,1170 5650,1815C5536,2048 5467,2282 5441,2522C5378,3093 5615,3699 6151,4342C6412,4655 6773,5001 7435,5570C7572,5688 7788,5877 7915,5989C8837,6807 9323,7176 9769,7399C9989,7510 10212,7583 10402,7609C10511,7624 10767,7614 10881,7591Z" style="fill:rgb(232,119,34);fill-rule:nonzero;stroke:black;stroke-width:158.16px;"/>
        </g>
    </g>
</svg>
