<?xml version="1.0" standalone="no"?>
<!DOCTYPE svg PUBLIC "-//W3C//DTD SVG 20010904//EN"
 "http://www.w3.org/TR/2001/REC-SVG-20010904/DTD/svg10.dtd">
<svg version="1.0" xmlns="http://www.w3.org/2000/svg"
 width="600.000000pt" height="600.000000pt" viewBox="0 0 600.000000 600.000000"
 preserveAspectRatio="xMidYMid meet">
<metadata>
Created by potrace 1.14, written by Peter Selinger 2001-2017
</metadata>
<g transform="translate(0.000000,600.000000) scale(0.100000,-0.100000)"
fill="#000000" stroke="none">
<path d="M2198 5641 c-38 -41 -76 -107 -86 -150 -3 -14 -5 -51 -5 -82 1 -148
137 -243 254 -177 107 60 94 204 -35 376 -37 50 -63 72 -84 72 -5 0 -25 -17
-44 -39z"/>
<path d="M3879 5619 c-65 -76 -91 -148 -92 -251 0 -96 58 -158 148 -158 120 0
186 66 179 180 -3 55 -37 149 -64 178 -11 12 -20 23 -20 26 0 16 -68 76 -86
76 -14 0 -38 -19 -65 -51z"/>
<path d="M2124 4975 c-216 -58 -381 -207 -471 -425 -28 -68 -52 -140 -59 -180
-2 -8 -8 -44 -15 -80 -7 -36 -13 -139 -13 -230 0 -167 10 -238 49 -350 16 -47
83 -163 97 -168 4 -2 8 -7 8 -12 0 -9 80 -91 80 -81 0 3 4 1 8 -4 15 -21 85
-67 135 -89 73 -33 85 -37 130 -49 33 -9 118 -20 167 -22 284 -8 552 215 649
540 37 127 46 190 45 350 -1 202 -18 287 -85 433 -44 96 -79 144 -163 225 -58
56 -188 131 -244 142 -12 2 -27 7 -33 11 -6 3 -55 7 -109 8 -73 2 -117 -3
-176 -19z"/>
<path d="M3835 4969 c-43 -8 -157 -48 -165 -58 -3 -3 -18 -13 -33 -21 -51 -26
-145 -120 -190 -188 -38 -58 -85 -154 -92 -187 -1 -5 -7 -28 -13 -50 -26 -92
-34 -271 -17 -400 11 -87 52 -239 81 -304 42 -90 44 -95 57 -116 47 -77 73
-109 142 -177 76 -76 162 -130 255 -163 91 -32 226 -36 335 -11 70 17 208 77
233 102 7 8 17 14 21 14 7 0 100 90 131 127 27 31 70 103 70 116 0 7 4 17 9
22 11 12 40 106 48 160 14 87 6 271 -17 390 -18 97 -21 108 -31 127 -5 10 -7
18 -5 18 9 0 -43 132 -81 205 -125 247 -362 402 -613 402 -47 0 -103 -3 -125
-8z"/>
<path d="M91 4108 c-31 -103 -25 -221 17 -295 38 -68 145 -90 229 -47 77 38
101 98 67 170 -36 75 -220 234 -272 234 -17 0 -25 -12 -41 -62z"/>
<path d="M5775 4072 c-152 -99 -240 -244 -197 -323 26 -48 105 -78 187 -72 64
5 114 31 143 74 21 30 23 44 21 130 -2 64 -10 117 -23 160 -27 82 -46 86 -131
31z"/>
<path d="M510 3492 c-145 -45 -236 -143 -290 -313 -11 -32 -21 -73 -24 -91 -4
-18 -8 -46 -11 -63 -7 -41 -7 -192 0 -235 3 -19 8 -51 10 -70 5 -39 8 -54 26
-125 6 -27 16 -56 22 -62 5 -7 7 -13 4 -13 -19 0 100 -238 152 -304 43 -54
122 -120 176 -146 78 -38 123 -47 213 -44 61 3 95 9 192 39 3 1 19 5 35 10 17
4 35 11 40 16 6 4 39 23 75 42 153 81 263 174 339 285 113 167 99 352 -42 572
-23 36 -44 67 -47 70 -3 3 -30 34 -60 70 -151 179 -301 293 -460 350 -88 31
-269 38 -350 12z"/>
<path d="M5260 3504 c-8 -3 -43 -14 -77 -25 -126 -40 -246 -120 -373 -250 -80
-82 -97 -101 -152 -174 -12 -16 -25 -32 -28 -35 -10 -10 -42 -66 -76 -135 -54
-110 -62 -158 -54 -300 3 -35 43 -129 78 -179 91 -131 276 -262 487 -346 134
-53 314 -44 426 23 55 32 131 106 167 160 15 23 29 44 32 47 36 35 122 264
146 385 2 11 6 31 10 45 11 50 14 261 4 330 -5 39 -21 101 -34 138 -79 225
-207 319 -438 320 -56 1 -110 -1 -118 -4z"/>
<path d="M2885 3069 c-123 -35 -214 -78 -350 -168 -38 -25 -74 -49 -80 -54
-91 -69 -144 -110 -160 -125 -11 -10 -45 -38 -75 -63 -58 -46 -79 -64 -120
-99 -32 -28 -150 -132 -164 -145 -6 -6 -78 -69 -161 -140 -215 -186 -217 -188
-355 -325 -128 -128 -183 -190 -233 -263 -15 -23 -34 -48 -41 -57 -23 -26 -95
-164 -121 -233 -35 -95 -52 -175 -54 -264 -2 -69 2 -101 23 -202 19 -89 86
-231 151 -321 81 -111 250 -231 359 -255 12 -2 40 -9 63 -15 22 -5 72 -12 109
-15 37 -3 71 -8 76 -11 4 -3 8 -1 8 4 0 6 14 7 34 2 19 -4 37 -5 40 -3 3 3 21
7 42 9 35 3 70 8 139 20 88 14 277 73 370 114 83 37 240 101 255 104 8 2 22 6
30 9 14 6 129 36 160 42 47 9 189 25 235 26 53 2 235 -14 280 -25 139 -33 192
-52 388 -145 48 -22 94 -41 102 -41 7 0 16 -4 19 -9 3 -5 16 -11 28 -14 13 -3
55 -15 93 -26 39 -12 87 -24 108 -26 21 -2 41 -6 45 -9 14 -8 146 -19 237 -18
113 0 170 7 295 37 69 17 240 93 240 106 0 5 7 9 15 9 8 0 50 35 93 78 78 76
143 174 158 237 4 17 9 34 12 40 4 5 7 16 8 25 1 8 5 35 9 60 8 56 8 47 2 160
-6 105 -29 191 -82 302 -38 81 -126 216 -195 299 -87 105 -416 423 -469 453
-9 5 -20 15 -26 21 -5 6 -39 36 -75 66 -36 30 -71 59 -78 66 -7 7 -34 29 -60
50 -26 21 -52 43 -58 48 -6 6 -37 32 -68 59 -31 27 -70 61 -85 75 -16 15 -64
58 -106 96 -43 39 -88 79 -99 90 -131 124 -381 288 -516 337 -129 47 -287 58
-395 27z"/>
</g>
</svg>
