<?xml version="1.0" standalone="no"?>
<!DOCTYPE svg PUBLIC "-//W3C//DTD SVG 20010904//EN"
 "http://www.w3.org/TR/2001/REC-SVG-20010904/DTD/svg10.dtd">
<svg version="1.0" xmlns="http://www.w3.org/2000/svg"
 width="1508.000000pt" height="1508.000000pt" viewBox="0 0 1508.000000 1508.000000"
 preserveAspectRatio="xMidYMid meet">
<metadata>
Created by potrace 1.14, written by Peter Selinger 2001-2017
</metadata>
<g transform="translate(0.000000,1508.000000) scale(0.100000,-0.100000)"
fill="#000000" stroke="none">
<path d="M5590 14434 c-145 -99 -259 -226 -334 -373 -33 -65 -73 -170 -82
-216 -40 -203 -29 -374 33 -510 57 -125 171 -244 286 -299 92 -44 144 -54 259
-51 212 5 372 120 467 335 75 170 -49 561 -274 859 -64 85 -270 302 -284 300
-3 0 -35 -20 -71 -45z"/>
<path d="M9865 14402 c-87 -59 -208 -177 -267 -262 -77 -108 -141 -250 -169
-370 -22 -91 -23 -107 -23 -240 0 -155 16 -230 69 -327 40 -73 80 -113 150
-150 99 -52 154 -65 275 -69 135 -4 210 10 316 60 340 161 363 657 50 1086
-61 83 -193 222 -255 268 -20 15 -40 33 -44 39 -13 21 -28 15 -102 -35z"/>
<path d="M5637 12694 c-1 -1 -31 -4 -67 -8 -36 -3 -76 -8 -90 -11 -14 -3 -41
-7 -60 -10 -114 -15 -309 -79 -459 -152 -332 -160 -599 -406 -799 -736 -111
-185 -227 -463 -277 -667 -23 -96 -45 -199 -55 -260 -7 -41 -14 -83 -16 -94
-8 -43 -20 -163 -30 -301 -13 -175 -6 -570 11 -677 2 -13 6 -45 10 -73 11 -89
56 -275 91 -379 35 -99 117 -277 170 -366 97 -164 270 -353 434 -476 139 -104
218 -148 435 -244 86 -39 330 -102 440 -114 28 -4 68 -9 90 -12 55 -7 290 -8
343 0 23 3 61 9 85 12 375 51 789 295 1057 624 25 30 48 57 51 60 27 24 161
243 219 360 86 171 189 459 214 597 3 16 7 39 10 53 9 38 25 130 31 175 3 22
7 49 10 60 20 97 28 555 13 720 -10 106 -18 176 -22 200 -2 11 -9 49 -16 85
-23 127 -95 372 -138 470 -83 191 -180 360 -282 495 -65 86 -253 271 -340 336
-200 149 -434 254 -660 298 -129 25 -149 28 -220 31 -103 4 -181 5 -183 4z"/>
<path d="M9808 12645 c-2 -2 -28 -5 -58 -9 -30 -3 -80 -10 -110 -16 -30 -6
-68 -13 -85 -16 -16 -3 -76 -20 -132 -39 -289 -96 -570 -297 -764 -545 -24
-30 -46 -57 -49 -60 -34 -29 -194 -317 -237 -425 -48 -123 -111 -347 -127
-455 -3 -19 -7 -44 -10 -55 -42 -208 -37 -667 9 -895 2 -13 7 -42 10 -65 18
-129 114 -480 165 -600 4 -11 18 -45 30 -75 51 -127 238 -466 269 -490 4 -3
18 -21 31 -40 40 -59 164 -201 232 -266 179 -173 371 -301 578 -387 75 -31
203 -73 249 -82 168 -33 260 -42 401 -39 97 2 217 11 229 18 3 2 29 6 56 10
28 3 91 17 140 30 345 93 656 276 885 519 84 90 146 168 199 252 24 39 52 82
62 97 11 15 19 31 19 36 0 5 11 29 24 53 52 95 133 348 151 474 4 22 8 47 10
55 25 85 24 515 -1 698 -13 102 -23 163 -40 262 -21 127 -24 143 -30 162 -3
10 -7 30 -10 45 -11 61 -48 194 -86 313 -206 637 -581 1104 -1083 1350 -99 48
-259 110 -325 125 -94 22 -206 45 -250 50 -55 8 -346 16 -352 10z"/>
<path d="M169 10663 c-127 -321 -171 -519 -164 -738 10 -336 135 -543 380
-632 139 -49 334 -33 490 43 184 89 297 285 262 453 -14 67 -68 179 -129 268
-53 78 -199 232 -272 288 -22 17 -51 39 -65 51 -75 60 -458 294 -481 294 -6 0
-15 -12 -21 -27z"/>
<path d="M14775 10484 c-234 -100 -391 -204 -560 -369 -146 -142 -263 -327
-303 -475 -2 -8 -5 -58 -5 -110 -1 -87 1 -101 30 -162 64 -136 204 -225 411
-262 71 -13 204 -14 260 -2 15 4 36 8 47 10 45 9 152 51 189 73 99 63 173 157
208 266 16 49 21 96 23 222 2 88 -1 189 -6 225 -18 129 -21 145 -25 151 -2 4
-6 24 -10 45 -6 38 -58 198 -87 265 -43 102 -72 159 -82 158 -5 0 -46 -16 -90
-35z"/>
<path d="M1450 8924 c-174 -20 -329 -64 -470 -134 -260 -130 -472 -408 -593
-780 -18 -55 -38 -126 -44 -159 -2 -14 -6 -27 -8 -31 -5 -8 -32 -170 -39 -230
-23 -196 -23 -449 -1 -628 2 -15 7 -56 10 -92 4 -36 9 -67 10 -70 2 -3 6 -26
10 -50 3 -25 10 -61 15 -80 5 -19 12 -51 15 -70 10 -58 84 -319 111 -389 14
-36 35 -91 46 -121 45 -123 136 -311 208 -430 259 -429 588 -674 986 -734 112
-17 333 -13 439 8 44 9 90 18 101 20 128 25 372 119 552 213 521 270 907 618
1068 962 35 74 82 205 91 251 34 187 36 284 8 480 -22 157 -126 415 -244 608
-79 130 -264 377 -398 532 -124 143 -377 385 -498 477 -17 13 -47 36 -68 52
-21 16 -61 44 -90 62 -29 19 -53 37 -55 41 -2 5 -8 8 -13 8 -5 0 -28 12 -52
27 -133 84 -384 189 -535 224 -76 17 -85 19 -127 25 -22 2 -53 7 -70 10 -62
11 -264 10 -365 -2z"/>
<path d="M13438 8934 c-2 -1 -28 -5 -58 -8 -143 -15 -209 -30 -355 -77 -213
-71 -431 -189 -640 -347 -100 -76 -127 -98 -219 -182 -313 -285 -649 -711
-796 -1010 -23 -47 -46 -94 -52 -104 -29 -54 -94 -266 -104 -339 -2 -15 -6
-39 -10 -55 -3 -15 -7 -85 -8 -157 -4 -192 37 -375 120 -535 15 -30 28 -57 29
-60 0 -3 31 -51 68 -107 284 -422 961 -866 1522 -998 132 -31 186 -38 332 -40
263 -4 482 60 698 203 322 214 589 618 770 1167 31 94 77 263 91 330 26 129
48 263 61 375 10 93 9 465 -2 560 -19 155 -42 281 -66 360 -5 19 -17 59 -25
89 -8 30 -21 68 -28 85 -14 31 -28 67 -31 76 -9 36 -90 185 -141 263 -108 162
-253 296 -399 369 -48 24 -183 76 -215 83 -8 2 -35 8 -60 15 -25 7 -56 14 -70
16 -14 3 -36 7 -50 9 -69 13 -114 17 -232 19 -70 2 -129 2 -130 0z"/>
<path d="M7597 7864 c-1 -1 -42 -4 -92 -8 -49 -3 -101 -8 -115 -11 -392 -75
-683 -203 -1110 -488 -89 -58 -450 -325 -515 -378 -11 -10 -103 -86 -205 -170
-102 -84 -219 -182 -260 -218 -42 -36 -102 -88 -134 -116 -32 -27 -68 -59 -81
-70 -12 -11 -37 -33 -56 -50 -19 -16 -70 -61 -114 -100 -44 -38 -85 -74 -91
-80 -59 -54 -167 -148 -369 -324 -16 -14 -93 -80 -170 -146 -77 -66 -165 -142
-195 -169 -30 -27 -69 -61 -85 -75 -82 -71 -182 -159 -210 -186 -17 -16 -63
-59 -101 -94 -114 -105 -340 -329 -449 -446 -365 -390 -604 -737 -785 -1139
-24 -53 -106 -296 -114 -336 -2 -14 -11 -54 -20 -90 -8 -36 -18 -85 -21 -110
-3 -25 -10 -74 -14 -110 -13 -101 -10 -354 5 -470 17 -123 54 -282 91 -395 15
-44 28 -82 28 -85 1 -3 6 -16 12 -30 6 -14 21 -50 33 -80 30 -77 133 -275 175
-338 19 -30 35 -56 35 -59 0 -9 143 -196 185 -242 340 -376 773 -589 1295
-639 152 -14 537 -7 650 12 14 3 61 10 105 16 105 15 114 17 355 70 123 27
416 118 568 176 153 59 200 77 237 94 323 144 431 188 580 238 100 34 286 88
325 95 14 3 54 12 90 20 81 19 219 45 285 53 28 3 61 7 75 10 138 22 583 22
720 0 14 -2 50 -7 80 -11 76 -9 279 -51 364 -76 221 -64 343 -113 602 -241
212 -105 393 -182 564 -240 110 -37 287 -91 340 -103 173 -39 336 -69 440 -81
25 -3 58 -7 75 -9 175 -23 654 -22 735 0 8 3 35 7 60 10 39 5 103 15 182 29
58 11 163 38 273 72 294 89 589 247 790 424 327 289 495 599 570 1055 12 73
19 210 18 325 -7 505 -219 1027 -637 1570 -45 58 -184 227 -211 256 -5 6 -46
51 -90 99 -139 154 -407 417 -600 590 -55 50 -102 92 -105 95 -4 5 -204 177
-320 276 -23 20 -157 132 -205 172 -11 10 -88 73 -170 142 -83 69 -158 132
-169 140 -17 14 -96 80 -226 190 -29 25 -58 50 -64 55 -6 6 -40 35 -76 65 -35
30 -70 60 -76 65 -33 29 -228 209 -289 266 -38 36 -95 88 -125 115 -30 27 -64
58 -75 69 -12 11 -50 45 -85 75 -35 30 -68 60 -74 65 -6 6 -67 57 -136 114
-69 56 -134 110 -145 119 -54 45 -271 206 -355 264 -365 251 -707 411 -1011
473 -102 21 -111 22 -224 30 -133 10 -165 12 -168 9z"/>
</g>
</svg>
